<svg xmlns="http://www.w3.org/2000/svg" viewBox="0 0 24 24"><defs><style>.a{fill:none;stroke:currentColor;stroke-linecap:round;stroke-linejoin:round;fill-rule:evenodd;}</style></defs><title>e-commerce-amazon-1</title><path class="a" d="M22.95,19.533c-12.3,6.719-21.594-.082-21.594-.082"/><path class="a" d="M20.593,23.337c1.432-.755,2.658-2.937,2.363-3.787l-.006-.017c-.26-.559-2.586-1.414-4.39-.7"/><path class="a" d="M12.928,7.9C8.383,8.24,4.3,8.995,4.3,13.686a4.146,4.146,0,0,0,4.369,4.52,5.751,5.751,0,0,0,4.823-2.133A7.944,7.944,0,0,0,15.163,18a.712.712,0,0,0,.71-.051c.61-.508,1.677-1.423,2.235-1.929a.551.551,0,0,0,.051-.761,3.8,3.8,0,0,1-1.118-2.692V8c0-1.929.153-3.708-1.269-5.025A6.82,6.82,0,0,0,11.354,1.5C8.1,1.5,5.4,2.829,4.8,5.969a.477.477,0,0,0,.407.609l2.843.354a.643.643,0,0,0,.508-.557A2.333,2.333,0,0,1,10.948,4.6a2,2,0,0,1,1.625.762A4.591,4.591,0,0,1,12.928,7.9Zm-.558,6.042c-.97,1.935-3.809,1.941-3.809-.762a2.67,2.67,0,0,1,2.184-2.742,9.984,9.984,0,0,1,2.183-.2v.61A5.391,5.391,0,0,1,12.37,13.941Z"/></svg>