<svg id="Light" xmlns="http://www.w3.org/2000/svg" viewBox="0 0 24 24"><defs><style>.cls-1{fill:none;stroke:currentColor;stroke-linecap:round;stroke-linejoin:round;}</style></defs><title>plant</title><path class="cls-1" d="M17,8.5a5,5,0,0,0-5,5A5,5,0,0,0,17,8.5Z"/><path class="cls-1" d="M5.5,15A6.5,6.5,0,0,1,12,21.5,6.5,6.5,0,0,1,5.5,15Z"/><path class="cls-1" d="M18.5,15A6.5,6.5,0,0,0,12,21.5,6.5,6.5,0,0,0,18.5,15Z"/><path class="cls-1" d="M7,8.5a5,5,0,0,1,5,5A5,5,0,0,1,7,8.5Z"/><path class="cls-1" d="M12,.5a4.95,4.95,0,0,1,0,7A4.95,4.95,0,0,1,12,.5Z"/><line class="cls-1" x1="12" y1="23.5" x2="12" y2="7.5"/></svg>