<svg xmlns="http://www.w3.org/2000/svg" viewBox="0 0 24 24"><defs><style>.a{fill:none;stroke:currentColor;stroke-linecap:round;stroke-linejoin:round;}</style></defs><title>book-library-1</title><path class="a" d="M23.5,22.5a1,1,0,0,1-1,1H1.5a1,1,0,0,1-1-1V1.5a1,1,0,0,1,1-1h21a1,1,0,0,1,1,1Z"/><line class="a" x1="0.5" y1="12.5" x2="23.5" y2="12.5"/><path class="a" d="M7.5,23.5h-4V15a.5.5,0,0,1,.5-.5H7a.5.5,0,0,1,.5.5Z"/><rect class="a" x="13.5" y="4.5" width="3" height="8"/><path class="a" d="M19.284,12.5,16.162,3.406a.5.5,0,0,1,.311-.635l1.892-.65A.5.5,0,0,1,19,2.432L22.456,12.5"/><path class="a" d="M13.5,12.5h-4V4a.5.5,0,0,1,.5-.5h3a.5.5,0,0,1,.5.5Z"/><path class="a" d="M11.5,23.5h-4V15a.5.5,0,0,1,.5-.5h3a.5.5,0,0,1,.5.5Z"/><path class="a" d="M20.5,23.5h-3V15a.5.5,0,0,1,.5-.5h2a.5.5,0,0,1,.5.5Z"/><path class="a" d="M17.5,23.5h-3V16a.5.5,0,0,1,.5-.5h2a.5.5,0,0,1,.5.5Z"/><line class="a" x1="5.5" y1="17.5" x2="5.5" y2="20.5"/><line class="a" x1="9.5" y1="17.5" x2="9.5" y2="20.5"/></svg>