<svg xmlns="http://www.w3.org/2000/svg" viewBox="0 0 24 24"><defs><style>.a{fill:none;stroke:currentColor;stroke-linecap:round;stroke-linejoin:round;}</style></defs><title>hyperlink-3</title><path class="a" d="M12.47,18.105,8.243,22.332a3.987,3.987,0,0,1-5.637,0l-.939-.939a3.985,3.985,0,0,1,0-5.635L7.773,9.651a3.987,3.987,0,0,1,5.637,0l.939.94"/><path class="a" d="M11.53,5.893l4.227-4.226a3.985,3.985,0,0,1,5.637,0l.939.938a3.985,3.985,0,0,1,0,5.635l-6.106,6.107a3.985,3.985,0,0,1-5.637,0l-.939-.94"/></svg>